<svg xmlns="http://www.w3.org/2000/svg" width="49.423" height="52" viewBox="0 0 49.423 52">
  <g id="icon02" transform="translate(-191.296 -72.679)">
    <g id="그룹_23" data-name="그룹 23" transform="translate(192.297 73.679)">
      <g id="그룹_17" data-name="그룹 17" transform="translate(23.711)">
        <line id="선_26" data-name="선 26" y2="7.699" fill="none" stroke="#00afc8" stroke-linecap="round" stroke-width="2"/>
      </g>
      <g id="그룹_18" data-name="그룹 18" transform="translate(11.856 3.177)">
        <line id="선_27" data-name="선 27" x2="3.849" y2="6.667" fill="none" stroke="#00afc8" stroke-linecap="round" stroke-width="2"/>
      </g>
      <g id="그룹_19" data-name="그룹 19" transform="translate(3.177 11.856)">
        <line id="선_28" data-name="선 28" x2="6.666" y2="3.849" fill="none" stroke="#00afc8" stroke-linecap="round" stroke-width="2"/>
      </g>
      <g id="그룹_20" data-name="그룹 20" transform="translate(0 23.711)">
        <line id="선_29" data-name="선 29" x2="7.698" y2="0.001" fill="none" stroke="#00afc8" stroke-linecap="round" stroke-width="2"/>
        <line id="선_30" data-name="선 30" y1="0.001" x2="7.698" transform="translate(39.724)" fill="none" stroke="#00afc8" stroke-linecap="round" stroke-width="2"/>
      </g>
      <g id="그룹_21" data-name="그룹 21" transform="translate(37.578 11.856)">
        <line id="선_31" data-name="선 31" y1="3.849" x2="6.667" fill="none" stroke="#00afc8" stroke-linecap="round" stroke-width="2"/>
      </g>
      <g id="그룹_22" data-name="그룹 22" transform="translate(31.717 3.177)">
        <line id="선_32" data-name="선 32" y1="6.667" x2="3.849" fill="none" stroke="#00afc8" stroke-linecap="round" stroke-width="2"/>
      </g>
    </g>
    <g id="그룹_25" data-name="그룹 25" transform="translate(203.745 85.58)">
      <path id="패스_282" data-name="패스 282" d="M233.35,151.846a3.576,3.576,0,0,1-3.576,3.575h0a3.576,3.576,0,0,1-3.577-3.575" transform="translate(-217.512 -117.322)" fill="none" stroke="#00afc8" stroke-linecap="round" stroke-linejoin="round" stroke-width="2"/>
      <g id="그룹_24" data-name="그룹 24" transform="translate(0 0)">
        <path id="패스_283" data-name="패스 283" d="M229.544,116.83a12.263,12.263,0,1,0-11.417,0v3.747h11.417Z" transform="translate(-211.573 -93.717)" fill="none" stroke="#00afc8" stroke-linecap="round" stroke-linejoin="round" stroke-width="2"/>
        <path id="패스_284" data-name="패스 284" d="M232.219,98.341a9.511,9.511,0,0,1,1.915.193,9.477,9.477,0,0,1,3.4,1.434,9.6,9.6,0,0,1,2.572,2.572" transform="translate(-219.957 -95.595)" fill="none" stroke="#00afc8" stroke-linecap="round" stroke-linejoin="round" stroke-width="2"/>
        <path id="패스_285" data-name="패스 285" d="M216.2,114.363" transform="translate(-213.451 -102.101)" fill="none" stroke="#00afc8" stroke-linecap="round" stroke-linejoin="round" stroke-width="2"/>
        <rect id="사각형_2079" data-name="사각형 2079" width="11.418" height="3.212" transform="translate(6.554 30.071)" fill="none" stroke="#00afc8" stroke-linecap="round" stroke-linejoin="round" stroke-width="2"/>
        <rect id="사각형_2080" data-name="사각형 2080" width="11.418" height="3.211" transform="translate(6.554 26.86)" fill="none" stroke="#00afc8" stroke-linecap="round" stroke-linejoin="round" stroke-width="2"/>
      </g>
    </g>
    <g id="그룹_30" data-name="그룹 30" transform="translate(206.958 96.649)">
      <g id="그룹_29" data-name="그룹 29" transform="translate(0 0)">
        <g id="그룹_28" data-name="그룹 28">
          <g id="그룹_26" data-name="그룹 26">
            <path id="패스_286" data-name="패스 286" d="M222.6,113.805a5.555,5.555,0,0,0-5.4-1.232,5.206,5.206,0,0,0,6.634,6.633A5.55,5.55,0,0,0,222.6,113.805Z" transform="translate(-216.983 -112.355)" fill="none" stroke="#00afc8" stroke-linecap="round" stroke-linejoin="round" stroke-width="2"/>
          </g>
          <g id="그룹_27" data-name="그룹 27" transform="translate(11.028)">
            <path id="패스_287" data-name="패스 287" d="M237,113.805a5.555,5.555,0,0,1,5.4-1.232,5.206,5.206,0,0,1-6.634,6.633A5.552,5.552,0,0,1,237,113.805Z" transform="translate(-235.55 -112.355)" fill="none" stroke="#00afc8" stroke-linecap="round" stroke-linejoin="round" stroke-width="2"/>
          </g>
        </g>
        <path id="패스_288" data-name="패스 288" d="M234.918,113.416l-8.533,8.533-8.534-8.533" transform="translate(-217.335 -112.786)" fill="none" stroke="#00afc8" stroke-linecap="round" stroke-width="2"/>
      </g>
      <line id="선_33" data-name="선 33" y2="6.076" transform="translate(9.049 9.369)" fill="none" stroke="#00afc8" stroke-linecap="round" stroke-width="2"/>
    </g>
  </g>
</svg>
