<svg xmlns="http://www.w3.org/2000/svg" width="52.138" height="52.142" viewBox="0 0 52.138 52.142">
  <g id="icon01" transform="translate(-88.363 -84.929)">
    <path id="패스_280" data-name="패스 280" d="M128.349,114.261a11.542,11.542,0,1,1-10.661-12.36A11.54,11.54,0,0,1,128.349,114.261Z" transform="translate(-2.407 -2.408)" fill="none" stroke="#00afc8" stroke-linecap="round" stroke-width="2"/>
    <g id="그룹_15" data-name="그룹 15" transform="translate(89.435 86)">
      <line id="선_14" data-name="선 14" x1="0.568" y2="7.67" transform="translate(26.272)" fill="none" stroke="#00afc8" stroke-linecap="round" stroke-width="2"/>
      <line id="선_15" data-name="선 15" x1="0.565" y2="7.667" transform="translate(23.157 42.333)" fill="none" stroke="#00afc8" stroke-linecap="round" stroke-width="2"/>
      <line id="선_16" data-name="선 16" x2="3.346" y2="6.923" transform="translate(14.093 2.431)" fill="none" stroke="#00afc8" stroke-linecap="round" stroke-width="2"/>
      <line id="선_17" data-name="선 17" x2="3.346" y2="6.923" transform="translate(32.557 40.649)" fill="none" stroke="#00afc8" stroke-linecap="round" stroke-width="2"/>
      <line id="선_18" data-name="선 18" x2="6.358" y2="4.322" transform="translate(4.272 10.908)" fill="none" stroke="#00afc8" stroke-linecap="round" stroke-width="2"/>
      <line id="선_19" data-name="선 19" x2="6.358" y2="4.322" transform="translate(39.369 34.773)" fill="none" stroke="#00afc8" stroke-linecap="round" stroke-width="2"/>
      <line id="선_20" data-name="선 20" x2="7.668" y2="0.568" transform="translate(0 23.156)" fill="none" stroke="#00afc8" stroke-linecap="round" stroke-width="2"/>
      <line id="선_21" data-name="선 21" x2="7.665" y2="0.565" transform="translate(42.331 26.279)" fill="none" stroke="#00afc8" stroke-linecap="round" stroke-width="2"/>
      <line id="선_22" data-name="선 22" y1="3.345" x2="6.921" transform="translate(2.431 32.561)" fill="none" stroke="#00afc8" stroke-linecap="round" stroke-width="2"/>
      <line id="선_23" data-name="선 23" y1="3.342" x2="6.923" transform="translate(40.645 14.096)" fill="none" stroke="#00afc8" stroke-linecap="round" stroke-width="2"/>
      <line id="선_24" data-name="선 24" y1="6.358" x2="4.324" transform="translate(10.905 39.369)" fill="none" stroke="#00afc8" stroke-linecap="round" stroke-width="2"/>
      <line id="선_25" data-name="선 25" y1="6.358" x2="4.322" transform="translate(34.77 4.273)" fill="none" stroke="#00afc8" stroke-linecap="round" stroke-width="2"/>
    </g>
  </g>
</svg>
